<?xml version='1.0' encoding='utf-8'?>
<svg xmlns="http://www.w3.org/2000/svg" version="1.1" width="600px" height="976px" viewBox="0 0 600 976"> <g id="layer1"> <g> <g style="fill:rgb(0,0,0); fill-opacity:1.0; stroke-linejoin: miter"> <path d="M437.06378,236.59636Q436.2165,238.04933,435.82465,239.23592Q435.698,239.63737,435.63202,239.977L435.29706,242.04105Q435.19482,242.59305,435.02844,243.21603Q434.90967,243.65549,434.7298,244.14865L434.0786,245.8201Q433.90833,246.31204,433.79572,246.80765Q433.55908,247.86172,433.5728,249.1669Q433.59784,250.47488,433.84424,250.91306Q433.98364,251.13443,434.23285,251.03036Q435.15765,250.62143,435.62836,250.15549Q435.82275,249.97598,436.0279,249.71994Q436.64832,248.85776,436.79865,248.69424Q437.92578,247.49307,438.7403,246.4161Q439.2232,245.75693,439.47998,245.09305L440.05212,243.21579Q440.29932,242.44434,440.5293,241.7865L437.0686,236.60341"/> </g> <g style="fill:rgb(0,0,0); fill-opacity:1.0; stroke-linejoin: miter"> <path d="M436.15143,237.01613Q435.5866,237.92287,435.38306,238.36015L434.3789,240.63577Q433.96588,241.60135,433.6772,242.78134Q433.26532,244.51102,433.17548,245.82394Q433.0927,247.46097,433.29474,248.65628Q433.42896,249.38235,433.77972,249.59048Q434.05713,249.82925,434.5813,249.54605Q435.17218,249.28299,436.07928,248.18924Q436.47192,247.70871,436.6491,246.99857Q436.84796,246.18076,436.8838,244.6163Q436.89398,244.10684,436.87256,243.64767Q436.86865,243.44412,436.78558,242.58328Q436.76794,242.33542,436.76154,242.08905Q436.74634,241.87436,436.78815,240.83719Q436.79126,240.5639,436.77814,240.29227L436.77008,240.199L436.1538,237.02837"/> </g> <g style="fill:rgb(0,0,0); fill-opacity:1.0; stroke-linejoin: miter"> <path d="M530.8046,279.7768L596.531,316.29416Q594.55615,316.97318,592.22534,319.4822Q587.0996,325.93887,583.5541,330.17386L583.5491,330.17392L583.2921,329.4232L582.55615,327.27243Q581.8873,325.75186,580.80945,324.5076Q580.303,322.99924,566.82227,314.98575Q566.3782,314.0671,545.22076,303.80856L517.7984,294.3312L517.7984,294.3312L517.2203,294.13144Q516.79047,293.9667,516.4776,293.8088Q515.83014,293.48196,515.68414,293.1841Q515.1257,292.55624,516.2819,290.82767Q516.3538,290.7195,516.4251,290.61258L516.4174,290.61276L530.8046,279.7768 Z"/> </g> <g style="fill:rgb(0,0,0); fill-opacity:1.0; stroke-linejoin: miter"> <path d="M414.31143,315.90955L459.99835,365.32925Q464.8902,370.25253,476.1388,378.90067Q480.5419,382.0867,484.17355,382.6829Q485.03775,382.81943,486.09543,382.80374L486.0881,382.80392L483.71146,383.44296L465.11084,376.02365Q462.30402,374.70242,459.4223,372.36703Q456.91913,370.64474,451.7536,364.3859Q438.98444,356.08633,433.5592,350.47763L426.91333,340.69434Q425.0866,338.31683,422.1032,335.62036L407.2269,324.86475L407.2203,324.86487Q408.35184,323.78467,409.5361,322.6438Q412.84238,319.30365,412.56522,318.07318L412.5585,318.0733L413.63205,317.45422Q414.08017,316.6057,414.30472,315.90967 Z"/> </g> <g style="fill:rgb(0,0,0); fill-opacity:1.0; stroke-linejoin: miter"> <path d="M584.8799,278.38733L573.6749,286.6202Q562.8798,301.488,560.0911,311.34872Q556.5892,321.38034,557.7319,330.34323Q558.3403,335.31903,564.26355,341.58527Q570.7639,347.4718,580.0189,339.6836Q582.6415,337.61487,586.0405,331.59695Q586.08374,331.85654,589.60645,323.45633L592.16394,316.56497Q593.02783,313.99557,592.9269,311.01193Q592.7405,305.27798,591.9414,300.8832Q591.5592,298.62454,588.34924,286.8881Q585.95496,279.61798,584.8849,278.39215"/> </g> <g style="fill:rgb(0,0,0); fill-opacity:1.0; stroke-linejoin: miter"> <path d="M463.18158,228.09315L459.13318,232.16872L450.12732,242.11249Q445.4381,248.16434,442.58484,253.83774Q441.99164,254.522,438.40436,265.05496Q437.39868,268.03568,436.86432,271.01193Q435.68866,276.06174,437.75812,280.94424Q441.73016,288.75665,444.497,290.6657Q447.0876,293.07697,452.3412,295.95728Q453.8897,296.7951,455.87238,296.88702Q457.6234,296.9651,459.47357,296.0622Q469.2168,291.27643,469.5965,290.68176Q470.81268,289.81036,471.74646,288.6147Q473.4906,286.07742,475.2937,283.80673Q475.85815,282.98666,476.23645,282.19577Q477.99683,278.8441,477.71063,272.33054Q477.71338,270.83035,477.54364,269.38467L477.0166,266.0112Q476.42487,260.2518,476.24097,259.9279L463.2066,228.15398"/> </g> <g style="fill:rgb(0,0,0); fill-opacity:1.0; stroke-linejoin: miter"> <path d="M438.4052,233.81755Q438.32562,234.61205,438.10516,235.16402Q436.83398,236.89354,436.4201,238.05812Q436.2614,238.46837,436.1046,239.06084Q435.91553,239.73903,435.51868,241.50977Q435.36237,242.1159,435.19275,242.61484L432.89856,248.54916L430.8781,255.66946Q429.47778,261.4597,429.2209,263.1981Q429.055,264.05844,429.09308,266.66666Q429.11334,267.02652,429.1645,267.36563Q429.43713,268.6113,429.57794,269.78793L430.21167,272.30746L431.59436,276.66068Q431.9004,277.53854,432.15967,277.97916Q433.52673,280.16904,434.26062,280.2056Q435.59076,279.79556,436.39764,278.47763L437.4085,276.14078Q438.72852,273.42783,440.00726,271.33676L441.35272,268.11746Q442.5539,265.68387,442.713,265.18027Q443.01367,264.40518,443.22443,263.6959Q443.63,261.8469,445.1527,257.09048Q445.68604,255.19547,445.7478,254.55661Q446.0041,252.52505,445.7539,250.10135Q445.6635,249.36343,445.5492,248.84464L444.59277,244.68796L438.4148,233.8344"/> </g> <g style="fill:rgb(0,0,0); fill-opacity:1.0; stroke-linejoin: miter"> <path d="M436.88904,237.70332Q436.7218,238.36626,436.2105,239.34972Q436.0658,239.60533,435.89716,239.83888Q435.14508,240.72217,434.70624,241.43668Q434.21027,242.1918,433.8958,242.99594Q433.69855,243.49442,433.54364,244.07089Q433.19434,245.37143,432.92334,246.65121Q432.8197,247.06894,432.67743,247.55997Q432.55066,247.99655,432.44592,248.29642Q432.36597,248.5383,432.1753,248.9664Q432.11023,249.14304,432.05225,249.35587Q431.84753,250.12851,431.81982,250.59048Q431.7896,250.96622,431.82794,251.3469Q431.91284,252.03207,432.07068,252.94675Q432.22113,253.80289,432.48718,254.42941Q432.54852,254.95255,434.83435,257.58896L436.88806,237.71593"/> </g> <g style="fill:rgb(0,0,0); fill-opacity:1.0; stroke-linejoin: miter"> <path d="M559.7442,77.98985L555.363,113.52572L555.363,113.52572L555.363,113.52572L559.7442,77.98985 Z M576.7644,164.48947L586.7186,167.70335L586.7186,167.70335L576.7644,164.48947 Z M588.6975,168.3423L589.4214,168.57603L588.6975,168.3423L588.6975,168.3423 Z M473.53473,175.58818L476.784,177.50531L476.784,177.50531L473.53473,175.58818 Z M496.79404,180.02652Q496.79404,180.02652,496.79404,180.02652L496.78647,180.02667Q496.78647,180.02667,496.78647,180.02667 Z M487.22208,181.85526Q487.21292,181.85541,487.2037,181.85559Q487.19455,181.85577,487.18546,181.85593 Z M486.8124,183.4873Q486.80362,183.48749,486.79477,183.48764Q486.78592,183.4878,486.77713,183.48798 Z M481.23428,181.38177L481.23428,181.38177L481.23428,181.38177L481.23428,181.38177L484.23105,182.94684L481.23428,181.38177L481.23428,181.38177L443.9616,202.69867L481.23428,181.38177 Z M588.6509,218.1198L588.54407,218.26497L588.65076,218.11986L588.64233,218.12001Q588.64246,218.12001,588.64246,218.11995 Z M434.96588,235.50923L433.32385,245.84494L433.33075,245.84482Q441.649,255.60043,457.32385,272.8325Q460.25452,276.44644,471.09552,285.7332L480.9531,297.83765L494.30905,308.734Q496.00357,309.4884,497.30185,309.46387Q498.62387,309.4389,499.53506,308.60632L514.4903,292.20126L514.498,292.20114Q514.4454,292.98563,514.84,293.47964Q515.26263,294.00705,515.88104,294.49173L515.87335,294.4919L504.96524,306.97968Q503.18265,308.8283,501.2145,309.64368Q499.9153,310.1731,498.47238,310.20032Q497.72067,310.21454,496.92996,310.09247L482.19656,307.28308Q479.70563,306.77893,478.10834,306.2494Q475.65912,305.4757,473.64246,304.09442L460.4593,293.95142L430.11932,266.01767L433.32385,245.84494L433.32385,245.84494L434.96588,235.50923 Z M530.8046,279.7768L596.531,316.29416Q594.55615,316.97318,592.22534,319.4822Q587.0996,325.93887,583.5541,330.17386L583.5491,330.17392L583.2921,329.4232L582.55615,327.27243Q581.8873,325.75186,580.80945,324.5076Q580.303,322.99924,566.82227,314.98575Q566.3782,314.0671,545.22076,303.80856L517.7984,294.3312L517.7984,294.3312L517.2203,294.13144Q516.79047,293.9667,516.4776,293.8088L516.4776,293.8088Q515.83014,293.48196,515.68414,293.1841Q515.1257,292.55624,516.2819,290.82767Q516.3538,290.7195,516.4251,290.61258L516.4174,290.61276L530.8046,279.7768 Z M583.60266,330.33066L585.31604,335.33813L583.60266,330.33066 Z M627.69385,296.87753Q627.69385,296.87753,627.69385,296.87753L627.69385,296.87753Q627.69385,296.87753,627.69385,296.8776L627.68506,296.87778L589.2777,336.5686L627.68506,296.87772 Z M586.32776,336.75476Q586.3269,336.75476,586.32605,336.75476Q586.3252,336.75476,586.32434,336.75482 Z M253.15479,348.61337Q252.28796,348.62985,251.44604,348.6461L251.44604,348.6461Q251.44604,348.6461,251.44604,348.6461L251.44104,348.6462Q252.2829,348.6299,253.14978,348.6135 Z M162.13817,364.162L144.461,371.2926L144.461,371.2926L162.13817,364.162 Z M582.3501,331.28934L584.3318,337.06848L582.39294,331.41458L582.4286,331.51865L582.4203,331.51877Q577.7269,337.0454,576.2626,338.03223Q567.0552,342.9878,543.9603,359.51297Q539.84766,362.31607,529.60693,365.04056L529.60693,365.04056Q553.23987,351.57336,556.67737,349.13104Q574.1227,337.513,582.3417,331.28946L582.3501,331.28934L582.39294,331.41458L582.3501,331.28934 Z M143.66925,371.612L123.53404,379.73425L143.66922,371.612 Z M521.54126,369.6287Q513.23047,375.70065,511.3818,376.00223L503.05124,378.24246L503.05124,378.24246Q509.855,375.54007,518.6947,371.2372Q520.14124,370.41818,521.53345,369.6288 Z M414.31143,315.90955L459.99835,365.32925Q464.8902,370.25253,476.1388,378.90067Q480.5419,382.0867,484.17355,382.6829Q485.03775,382.81943,486.09543,382.80374L486.0881,382.80392L483.71146,383.44296L465.11084,376.02365Q462.30402,374.70242,459.4223,372.36703Q456.91913,370.64474,451.7536,364.3859Q438.98444,356.08633,433.5592,350.47763L426.91333,340.69434Q425.0866,338.31683,422.1032,335.62036L407.2269,324.86475L407.2203,324.86487Q408.35184,323.78467,409.5361,322.6438Q412.84238,319.30365,412.56522,318.07318L412.5585,318.0733L413.63205,317.45422Q414.08017,316.6057,414.30472,315.90967 Z M176.32988,421.4256L171.62547,431.71643L176.32988,421.4256 Z M241.94604,431.45807L242.01129,431.80127L242.01129,431.80127L241.94604,431.45807 Z M267.68698,438.19702L267.62222,441.41986L267.62222,441.41986L267.68698,438.19702 Z M-140.21028,469.87576Q-140.11781,469.87424,-140.02525,469.87247Q-139.95482,469.87112,-139.88435,469.86978L-139.88326,469.86972Q-139.95427,469.87112,-140.02525,469.87247Q-140.11835,469.87424,-140.21136,469.87582 Z M-144.21764,324.56656L-144.42258,324.57266Q-174.72755,326.00107,-195.60602,347.64554Q-215.9818,370.17926,-215.43178,399.92172Q-214.01498,430.17545,-192.63968,450.94882Q-170.53859,471.36728,-140.23299,471.0472Q-109.92093,469.73044,-88.95465,448.1478Q-68.49364,425.66684,-68.95163,395.92276Q-70.16501,365.7715,-91.79139,344.6242Q-113.91141,324.22073,-144.21764,324.56656 Z M-45.414124,476.96683L-38.08586,482.35062L-45.414124,476.96683L-45.414124,476.96683L-45.414124,476.96683 Z M242.24594,433.03522L252.23453,485.55777L264.40842,492.23044L264.40842,492.23044L252.23453,485.55777L242.24594,433.03522 Z M344.12332,476.2963L265.71732,492.43808L265.71732,492.43808L344.12332,476.2963 Z M495.77347,496.23294L495.07877,499.2415L495.07877,499.2415L495.77347,496.23294 Z M-4.4337153,513.29364Q-4.4337153,513.29364,-4.4337153,513.29364L-4.4337153,513.29364Q-4.4337153,513.29364,-4.4337153,513.29364 Z M494.99478,499.605L494.95413,499.7809L489.35062,524.0491L494.8511,500.22714L494.97037,499.7111L494.99478,499.605 Z M478.07196,604.5787L463.19446,674.03424L463.19446,674.03424L478.07196,604.5787 Z M463.19403,674.0363L463.02557,674.8226L456.5188,705.1992L462.88995,675.4559L462.88995,675.4559L463.19403,674.0363 Z M457.7832,746.5149L458.27014,751.7057L458.27014,751.7057L458.27014,751.7057L457.7832,746.5149 Z M393.82495,736.61206L399.49933,755.6039L399.49933,755.6039L393.82495,736.61206 Z M399.73822,756.4033L399.76837,756.5044L399.73822,756.4033L399.73822,756.4033L399.82764,756.70264L399.76837,756.5044L402.2998,764.9769L399.73822,756.4033 Z M458.44232,753.54114L462.0415,791.90436L458.44232,753.54114L458.44232,753.54114 Z M428.05914,942.87415L428.23236,943.1371L428.23236,943.1371L428.05914,942.87415 Z M429.1756,944.569L429.1761,944.5697L429.1756,944.569 Z M429.1761,944.5697L463.0536,996.0001L429.1761,944.5697 Z M495.29495,10.949306Q453.5816,23.449482,434.46515,59.44675Q432.28375,72.537834,439.64392,72.92147Q437.91473,75.43087,442.43823,104.02277L449.72882,115.75202L449.4751,135.31192Q448.3324,137.05243,456.40442,137.48819L459.03217,149.61922Q458.4494,150.9485,464.4604,154.74913Q463.22046,161.1248,464.0124,161.17851Q471.79688,169.73573,471.72717,176.08713Q471.12054,177.0705,480.3303,181.24805Q456.45074,193.14572,442.3969,201.53781Q438.4663,208.92628,432.87262,235.56932L428.63422,264.65042L428.63422,264.65042L427.59033,263.68936L427.5835,263.68948Q410.86795,242.2461,370.56577,220.56145Q369.89236,219.04146,367.64658,219.08385Q360.69992,219.21501,338.7087,234.29555L328.05954,243.92285L323.3799,257.65424Q322.81326,259.18604,323.80203,260.27222Q324.37357,260.03247,324.98032,260.02106Q328.57748,259.95313,333.4164,267.9085L344.65567,271.8498L356.9609,266.5184L360.93887,259.02658L377.9243,265.19284L386.9028,274.79715Q399.3071,299.06366,412.225,314.45453L411.2679,317.32574L411.26126,317.32587Q409.1492,318.21948,407.87045,319.33893Q392.4952,335.51837,382.00674,342.13898Q373.24008,347.69742,362.93027,348.7944Q360.2852,349.3027,355.5765,349.39163Q338.9523,349.70554,296.6056,344.79153Q271.00928,345.17807,254.25165,345.49448Q222.08125,346.1019,222.48518,346.45078L195.3358,345.48114Q195.16866,345.47443,194.98814,345.47784Q193.25941,345.5105,190.30415,346.4699L161.18245,361.21948L121.21831,377.55328L55.291893,418.91824L-7.5488577,464.88065L-34.84453,480.61002Q-35.123947,480.6876,-35.376038,480.69235Q-35.94896,480.70322,-36.380783,480.33755L-43.831192,474.16885Q-45.92752,473.02286,-47.905396,473.06015Q-48.05928,473.06308,-48.21245,473.07315L-48.21245,473.07315L-48.21245,473.07315L-48.663788,473.17313L-48.663696,473.17313L-87.193085,481.70682Q-114.544876,486.00204,-145.19893,488.96848Q-145.25206,488.9608,-145.32532,488.9622Q-146.92111,488.99228,-158.07365,493.35568Q-169.22987,502.80307,-168.25557,506.54062Q-168.33583,506.51224,-168.3992,506.51334L-168.40001,506.51334Q-170.04695,506.54697,-160.2284,526.5638Q-159.27766,527.9141,-157.67183,528.90717L-133.43762,540.8932Q-134.46465,541.48065,-113.40698,544.48206Q-112.3217,544.624,-111.22412,544.6033Q-110.07127,544.58154,-108.90486,544.38025L-89.93393,540.15L-69.62352,538.75Q-69.01242,538.6875,-68.43071,538.568L-68.42891,538.568Q-68.36514,539.1398,-68.18982,539.92395L-46.479965,539.5747L-21.932343,542.9508Q-20.476654,543.17395,-19.365906,543.15295Q-17.616423,543.1198,-16.722624,542.4814Q-9.230712,541.04376,-6.0374136,530.64886L-2.5182798,513.0999L-2.5182798,513.0999L-2.1986387,511.50595L-2.1986387,511.50595L-2.1986387,511.50595L-1.652252,508.78128L94.05773,463.67722L109.37062,463.6102L144.84888,450.97537L172.88481,433.25134L178.45036,422.32452L178.45036,422.32452L179.02238,421.20148Q180.69994,420.41968,183.99992,420.35736Q197.83376,420.0962,240.17984,432.47925L250.72098,487.2653L264.19675,494.3038L264.19156,494.30386Q264.19156,494.30386,264.19156,494.30386L264.19675,494.3038L264.7628,494.5994L346.8826,478.83218L366.95157,501.20468L358.52853,543.2393L354.84726,618.6389L395.44293,640.7733L390.7055,715.25037L391.74933,736.8092L397.17944,754.8213L397.56543,756.1017L397.56696,756.1068L397.56696,756.1068L400.27155,765.078Q401.81256,792.2341,398.43274,811.76447L398.57312,869.347L393.2033,945.99524Q386.37262,952.5349,385.59924,960.6874Q388.60254,975.704,389.2201,975.69226Q389.24573,975.6919,389.2672,975.6655Q404.15363,997.3412,413.08667,1017.7374L436.1858,1028.1367Q437.52496,1028.6461,438.8661,1028.6208Q439.58936,1028.6072,440.31317,1028.438Q471.548,1024.3262,468.6494,1009.03894L464.53192,994.27856L453.2157,980.06604L449.96362,971.29175Q438.4848,956.7313,431.9502,944.66113L431.9502,944.66113Q431.54767,943.9177,431.164,943.1837L431.164,943.1837Q429.3922,939.7947,428.02032,936.6071Q427.96912,936.58124,427.91937,936.5572L427.91278,936.5573L430.7381,910.0035Q438.99426,883.3223,440.26215,869.0666Q449.45422,838.3555,456.72528,821.727L464.19843,791.627Q461.6549,770.77814,460.23834,752.1393L460.23834,752.1393Q460.1668,751.1979,460.09814,750.26184L460.09814,750.26184Q458.3548,726.504,458.46484,706.3804L480.22916,604.1247Q485.98648,573.709,491.49612,523.60596L496.7546,501.08072L496.7546,501.08072L496.98813,500.08072L496.98807,500.08072L497.95737,495.92874L509.30966,485.33475L514.96094,469.87756L530.2705,446.89362L597.9015,360.6814Q637.51245,289.95187,643.7113,253.90784L643.1483,232.36546Q643.0199,230.43483,642.5105,229.1363Q638.15234,212.00525,626.72424,198.67062L590.9127,167.21483L578.2914,163.19836Q567.473,151.98276,558.0882,131.81572L557.30817,118.09237L557.30817,118.09237L557.18256,115.882774L561.8337,79.1682L555.74335,48.976563Q554.75555,45.254795,554.3837,45.257664L533.1064,20.773487Q526.72723,18.466389,495.41733,10.950801L495.29495,10.949306 Z"/> </g> <g style="fill:rgb(0,0,0); fill-opacity:1.0; stroke-linejoin: miter"> <path d="M564.36694,207.40121Q554.1275,216.00165,547.2851,223.42317Q547.46295,222.45116,528.8735,246.76776Q516.2308,265.3069,501.3085,295.06598Q497.32065,303.59143,494.53683,312.59363L483.21988,354.41812Q481.01883,362.4371,476.72705,373.1232L475.17133,378.4847Q471.7599,394.3931,473.42426,405.8564Q474.18207,410.22855,477.0078,410.31473Q501.6002,410.5436,505.94724,409.5768Q519.0055,409.04068,531.2616,399.69485Q538.0951,395.196,556.1223,374.71536Q555.499,376.31387,572.8849,352.67178Q577.60333,346.22455,581.484,339.22986L593.37244,315.06027Q596.2206,309.93246,597.07227,296.55453Q596.9315,283.07132,595.43933,278.3783Q592.98596,270.61444,590.4614,266.66016L583.3402,257.99084Q577.64575,247.5882,571.8601,241.66197L564.423,207.65778"/> </g> <g style="fill:rgb(0,0,0); fill-opacity:1.0; stroke-linejoin: miter"> <path d="M491.58414,262.97342Q482.94205,267.95395,477.54517,273.4407Q471.1584,279.31375,458.9933,294.98566Q447.61102,309.02722,431.72992,340.28577Q429.75476,343.5064,427.47083,353.9128Q427.01007,354.39407,426.2431,367.91464Q426.17438,383.3115,429.77814,385.47528Q434.61902,386.73615,447.91827,392.652Q450.5204,393.56284,454.5255,394.15744Q463.14032,396.0068,473.7163,392.21378Q474.89966,391.7628,476.023,391.0012Q478.93457,388.32748,484.8436,384.67978L494.6061,376.0884Q501.63522,366.85977,506.95065,356.34366Q512.0979,346.71783,513.5656,334.86536Q515.8035,293.58438,514.9018,277.58447L491.64792,263.01297"/> </g> <g style="fill:rgb(0,0,0); fill-opacity:1.0; stroke-linejoin: miter"> <path d="M456.90936,284.74356L433.0481,304.95587Q431.95404,305.82294,430.71466,306.64325L426.04742,309.57593L414.93942,317.81543L412.27982,319.48993Q411.3414,320.15417,410.22372,321.47815Q408.616,323.08203,405.58255,330.07318Q404.12564,333.25806,403.32144,336.66547Q402.64468,339.8028,402.81125,341.50702Q402.91397,343.02008,403.68533,346.33246Q403.92145,347.18198,404.30902,347.67117Q408.12573,351.6263,408.6541,351.63858Q410.5902,352.5646,414.4386,353.05508Q415.11237,353.11618,416.1458,353.0947L425.35645,352.75095Q425.31677,353.1035,433.59534,350.05588Q443.8404,345.3153,443.66858,345.0865Q453.90247,338.0119,458.0395,334.54413L465.09406,329.9923Q475.3412,322.33862,479.79858,316.64478L456.97485,284.8348"/> </g> <g style="fill:rgb(255,209,164); fill-opacity:1.0; stroke-linejoin: miter"> <path d="M367.64658,219.08385Q360.69992,219.21501,338.7087,234.29555L328.05954,243.92285L323.3799,257.65424Q322.81326,259.18604,323.80203,260.27222Q324.37357,260.03247,324.98032,260.02106Q328.57748,259.95313,333.4164,267.9085L344.65567,271.8498L356.9609,266.5184L360.93887,259.02658L377.9243,265.19284L386.9028,274.79715Q399.3071,299.06366,412.225,314.45453L411.2679,317.32574L411.26126,317.32587Q409.1492,318.21948,407.87045,319.33893Q406.2039,321.09265,404.5947,322.73407L404.60123,322.73395L405.53317,323.64008L422.1032,335.62036Q425.0866,338.31683,426.91333,340.69434L433.5592,350.47763Q438.98444,356.08633,451.7536,364.3859Q456.91913,370.64474,459.4223,372.36703Q462.30402,374.70242,465.11084,376.02365L483.71146,383.44296L511.3818,376.00223Q513.7471,375.61636,526.6908,365.78445Q539.28516,362.6995,543.9603,359.51297Q567.0552,342.9878,576.2626,338.03223Q577.7269,337.0454,582.4203,331.51877L582.4286,331.51865L582.3501,331.28934L582.4263,331.51175Q586.2533,327.0049,592.22534,319.4822Q594.55615,316.97318,596.531,316.29416L530.8046,279.7768L514.8892,291.76358L499.53506,308.60632Q498.62387,309.4389,497.30185,309.46387Q496.00357,309.4884,494.30905,308.734L480.9531,297.83765L471.09552,285.7332Q460.25452,276.44644,457.32385,272.8325Q441.649,255.60043,433.33075,245.84482Q432.45892,244.82236,431.66797,243.88199L431.66113,243.88211L428.58325,265.00003Q412.09982,242.9089,370.56577,220.56145Q369.89236,219.04146,367.64658,219.08385 Z"/> </g> <g style="fill:rgb(0,0,0); fill-opacity:1.0; stroke-linejoin: miter"> <path d="M495.2888,12.967493L531.736,22.392015L552.9803,46.762547L559.7442,77.98985L555.2165,114.713554Q555.6379,132.56068,555.99554,132.55394Q556.03644,132.55318,556.07635,132.32011Q566.31445,154.19809,576.7644,164.48947L589.4214,168.57603Q601.98914,181.74934,624.7123,199.36111Q636.22046,212.53986,640.55383,229.68123Q641.1581,231.04597,641.12476,232.86366L641.64136,254.43427Q635.8739,288.18747,596.0825,359.72217L528.4657,445.90222L513.22314,468.87036L507.51755,484.48L495.77347,496.23294L489.35062,524.0491Q483.87674,574.2036,478.07196,604.5787L456.5188,705.1992Q455.90796,716.8667,457.7832,746.5149L462.0415,791.90436L454.47528,822.0191Q448.05646,835.992,438.0528,869.476Q436.8131,883.7044,428.5896,910.4257L425.61676,935.7021Q425.30817,936.6242,426.28754,936.88043L426.28088,936.88055Q426.00818,938.2735,428.05914,942.87415L463.05365,996.0001L466.86035,1009.75793Q463.16553,1020.23315,462.1651,1020.2521Q461.9829,1020.2555,461.89008,1019.91223Q460.05463,1023.5951,438.8161,1026.5309L414.59406,1016.71606Q405.9228,996.03735,390.90918,974.42944L387.61884,960.4674Q388.02173,954.1261,395.16046,946.8347L400.6277,869.16486L400.4906,811.5516Q403.88092,792.0184,402.2998,764.9769L393.82495,736.61206L392.78064,716.2383L397.4297,640.9863Q397.35345,638.1477,395.01,637.33594L356.53305,617.6156L360.56943,543.1341L368.933,501.119Q368.527,498.1039,367.61905,497.88388L348.5859,477.61862L348.1711,477.20224Q346.85532,476.09567,345.29123,476.12515Q344.7236,476.1359,344.12332,476.2963L265.04117,492.57724L252.23453,485.55777L241.94604,431.45807Q221.74474,424.02203,198.69011,419.88324L179.16585,419.37592Q176.45226,420.5724,176.41014,421.24994L171.62547,431.71643L144.4209,448.89267L108.89989,461.60403L93.5346,461.65628L-1.9152524,506.5737Q-4.063171,508.30032,-4.0876765,509.26346Q-5.5592647,529.1965,-10.4318075,535.4482Q-9.313262,536.7076,-17.369627,540.49664L-64.78815,537.2942L-64.78998,537.2942Q-63.814087,536.5265,-68.104645,535.209L-87.23752,536.74L-111.710526,541.5554Q-134.19798,538.52313,-133.34962,537.48376L-155.11562,526.75934Q-157.10365,525.81744,-157.96065,524.5302L-165.90918,506.52127Q-166.07274,506.6044,-166.15334,506.60593Q-167.04347,506.62277,-157.81206,496.68564Q-146.90437,492.17142,-144.345,491.96817Q-115.29031,489.1981,-87.389496,484.90262L-48.39482,476.22238Q-48.150833,476.1412,-47.854645,476.13565Q-47.020218,476.1199,-45.771423,476.70438L-38.08586,482.35062Q-36.564224,482.96133,-35.007416,482.93198Q-33.619797,482.90573,-32.20424,482.371L-5.9075007,467.55283L56.94158,421.53824L123.53404,379.73425L162.13817,364.162L191.81114,348.9673Q193.03477,348.5241,194.74751,348.49176Q195.30486,348.48126,195.91396,348.51428L223.07347,349.53708Q222.66649,349.18906,253.4325,348.6082Q270.5219,348.2855,297.2295,347.89102Q339.0375,352.82645,355.97073,352.50674Q361.69278,352.3987,364.57437,351.69058Q376.0516,350.36386,386.8835,342.5841Q393.17197,338.4087,409.5361,322.6438Q412.84238,319.30365,412.56522,318.07318L412.5585,318.0733L413.63205,317.45422Q415.0969,314.68042,414.17294,313.5357Q401.36447,298.55316,388.9044,274.16928L379.37418,263.7455L360.5908,257.09274L355.28635,265.24957L344.1755,269.82886Q339.45248,265.75427,336.06888,265.8181Q335.1165,265.83612,334.27023,266.182Q330.21298,258.5907,326.3135,258.6643Q325.72415,258.67548,325.1384,258.8617L329.72012,245.03778L341.03342,234.99625Q361.582,221.18706,368.22086,221.06169Q370.50388,221.0186,371.14188,222.59377Q390.35355,233.70143,404.49185,244.34811L425.5208,265.39133Q427.43268,267.67532,428.987,267.64597Q429.45862,267.63705,429.89728,267.4152L434.96588,235.50923Q440.91754,208.27205,443.9616,202.69867L482.31064,180.76617L473.53473,175.58818Q473.66437,169.0312,465.86725,160.28511L466.3728,154.09618L461.35114,149.925L458.13782,136.94391Q457.68634,135.34775,451.20746,134.60245Q452.0716,114.940346,451.8114,114.8162L451.80432,114.81632Q451.77118,114.8325,451.72174,115.13279L444.32507,103.38933Q440.07507,74.59707,441.49347,72.45196Q441.59094,71.1749,436.52777,69.16574L436.29382,60.444702Q455.09412,25.23122,495.2888,12.967493 Z M495.29495,10.949306Q453.5816,23.449482,434.46515,59.44675Q432.28375,72.537834,439.64392,72.92147Q437.91473,75.43087,442.43823,104.02277L449.72882,115.75202L449.4751,135.31192Q448.3324,137.05243,456.40442,137.48819L459.03217,149.61922Q458.4494,150.9485,464.4604,154.74913Q463.22046,161.1248,464.0124,161.17851Q471.79688,169.73573,471.72717,176.08713Q471.12054,177.0705,480.3303,181.24805Q456.45074,193.14572,442.3969,201.53781Q438.4663,208.92628,432.87262,235.56932L428.58325,265.00003Q412.09982,242.9089,370.56577,220.56145Q369.89236,219.04146,367.64658,219.08385Q360.69992,219.21501,338.7087,234.29555L328.05954,243.92285L323.3799,257.65424Q322.81326,259.18604,323.80203,260.27222Q324.37357,260.03247,324.98032,260.02106Q328.57748,259.95313,333.4164,267.9085L344.65567,271.8498L356.9609,266.5184L360.93887,259.02658L377.9243,265.19284L386.9028,274.79715Q399.3071,299.06366,412.225,314.45453L411.2679,317.32574L411.26126,317.32587Q409.1492,318.21948,407.87045,319.33893Q392.4952,335.51837,382.00674,342.13898Q373.24008,347.69742,362.93027,348.7944Q360.2852,349.3027,355.5765,349.39163Q338.9523,349.70554,296.6056,344.79153Q271.00928,345.17807,254.25165,345.49448Q222.08125,346.1019,222.48518,346.45078L195.3358,345.48114Q195.16866,345.47443,194.98814,345.47784Q193.25941,345.5105,190.30415,346.4699L161.18245,361.21948L121.21831,377.55328L55.291893,418.91824L-7.5488577,464.88065L-34.84453,480.61002Q-35.123947,480.6876,-35.376038,480.69235Q-35.94896,480.70322,-36.380783,480.33755L-43.831192,474.16885Q-45.92752,473.02286,-47.905396,473.06015Q-48.05928,473.06308,-48.21245,473.07315L-87.193085,481.70682Q-114.544876,486.00204,-145.19893,488.96848Q-145.25206,488.9608,-145.32532,488.9622Q-146.92111,488.99228,-158.07365,493.35568Q-169.22987,502.80307,-168.25557,506.54062Q-168.33583,506.51224,-168.3992,506.51334L-168.40001,506.51334Q-170.04695,506.54697,-160.2284,526.5638Q-159.27766,527.9141,-157.67183,528.90717L-133.43762,540.8932Q-134.46465,541.48065,-113.40698,544.48206Q-112.3217,544.624,-111.22412,544.6033Q-110.07127,544.58154,-108.90486,544.38025L-89.93393,540.15L-69.62352,538.75Q-69.01242,538.6875,-68.43071,538.568L-68.42891,538.568Q-68.36514,539.1398,-68.18982,539.92395L-46.479965,539.5747L-21.932343,542.9508Q-20.476654,543.17395,-19.365906,543.15295Q-17.616423,543.1198,-16.722624,542.4814Q-9.230712,541.04376,-6.0374136,530.64886L-1.652252,508.78128L94.05773,463.67722L109.37062,463.6102L144.84888,450.97537L172.88481,433.25134L179.02238,421.20148Q180.69994,420.41968,183.99992,420.35736Q197.83376,420.0962,240.17984,432.47925L250.72098,487.2653L264.7628,494.5994L346.8826,478.83218L366.95157,501.20468L358.52853,543.2393L354.84726,618.6389L395.44293,640.7733L390.7055,715.25037L391.74933,736.8092L400.27155,765.078Q401.81256,792.2341,398.43274,811.76447L398.57312,869.347L393.2033,945.99524Q386.37262,952.5349,385.59924,960.6874Q388.60254,975.704,389.2201,975.69226Q389.24573,975.6919,389.2672,975.6655Q404.15363,997.3412,413.08667,1017.7374L436.1858,1028.1367Q437.52496,1028.6461,438.8661,1028.6208Q439.58936,1028.6072,440.31317,1028.438Q471.548,1024.3262,468.6494,1009.03894L464.53192,994.27856L453.2157,980.06604L449.96362,971.29175Q434.51337,951.69385,428.02032,936.6071Q427.96912,936.58124,427.91937,936.5572L427.91278,936.5573L430.7381,910.0035Q438.99426,883.3223,440.26215,869.0666Q449.45422,838.3555,456.72528,821.727L464.19843,791.627Q458.26465,742.98975,458.46484,706.3804L480.22916,604.1247Q485.98648,573.709,491.49612,523.60596L497.95737,495.92874L509.30966,485.33475L514.96094,469.87756L530.2705,446.89362L597.9015,360.6814Q637.51245,289.95187,643.7113,253.90784L643.1483,232.36546Q643.0199,230.43483,642.5105,229.1363Q638.15234,212.00525,626.72424,198.67062L590.9127,167.21483L578.2914,163.19836Q567.473,151.98276,558.0882,131.81572L557.18256,115.882774L561.8337,79.1682L555.74335,48.976563Q554.75555,45.254795,554.3837,45.257664L533.1064,20.773487Q526.72723,18.466389,495.41733,10.950801L495.29495,10.949306 Z"/> </g> <g style="fill:rgb(0,0,0); fill-opacity:1.0; stroke-linejoin: miter"> <path d="M248.9237,345.59775Q247.95703,345.61697,247.0257,345.63596L247.03064,345.6359Q248.44693,347.35886,249.50928,348.6838Q251.97672,351.76123,252.53452,352.69153Q253.70566,354.40857,254.7587,356.59888L256.49503,360.57312L264.22617,379.84216Q265.5021,383.18,265.79697,385.66888L265.9133,387.0298L267.60025,430.37634Q267.76004,433.72455,267.68698,438.19702L267.6221,441.42218L267.58945,443.04547L267.58945,443.04755L266.88803,477.90366Q266.7855,479.6108,266.37112,481.99832Q264.4628,491.241,264.49387,491.6456Q264.44815,491.9418,264.4081,492.23312Q264.4081,492.2332,264.4081,492.2332Q264.26144,493.30087,264.19156,494.30386L264.19675,494.3038L264.7628,494.5994L264.99924,494.554L265.00443,494.55386Q265.44443,493.51724,265.63754,492.69833Q265.66928,492.61435,265.717,492.43912Q266.06863,491.14755,267.28616,484.89645Q268.33212,479.90396,268.46548,473.3173L269.04977,443.5763L269.05496,443.57617Q269.05246,443.57532,269.04996,443.57446L269.04984,443.57446L269.07877,442.10107L269.08395,442.101Q269.08133,442.09973,269.07883,442.09845L269.07883,442.09845L269.10135,440.9532Q269.1805,436.3532,269.1343,433.45563L268.96976,427.7033L267.4733,389.48755Q267.37692,386.87512,267.16727,385.25018Q266.83713,382.3377,265.55484,379.32117L256.4122,356.43536Q256.04562,355.47107,255.56638,354.54242Q254.86887,352.90228,251.44604,348.6461Q250.33179,347.26053,248.92871,345.5977 Z"/> </g> <g style="fill:rgb(0,0,0); fill-opacity:1.0; stroke-linejoin: miter"> <path d="M233.96005,429.16553L235.58023,429.80396Q237.04428,430.69116,239.65463,431.8883Q240.83188,432.42755,242.24551,433.03284L242.24551,433.03284L242.24594,433.03522L242.25089,433.0351Q243.0929,433.39557,244.01877,433.77936L244.01233,433.77948Q243.92468,433.8319,265.4514,442.23114Q266.6547,442.69745,267.58945,443.04547L267.58945,443.04547L267.58945,443.04755L267.5947,443.0475Q268.42953,443.35822,269.04984,443.57446L269.07877,442.10107L269.08395,442.101Q268.44833,441.78412,267.6273,441.42206Q266.29617,440.83502,264.47763,440.12915Q250.37943,434.72333,242.01624,431.8012Q236.92993,430.024,233.96487,429.16547 Z"/> </g> <g style="fill:rgb(0,0,0); fill-opacity:1.0; stroke-linejoin: miter"> <path d="M143.83289,368.76404Q143.68762,370.15063,143.67319,371.61047L143.6731,371.61047L143.66922,371.612L143.67316,371.61194Q143.65039,373.9204,143.95477,376.412Q144.8558,385.6046,145.83414,388.15802Q146.5256,390.4312,147.91605,392.61084Q151.28339,398.18988,154.67636,402.83118Q157.05429,406.07245,161.98323,410.95367Q166.80763,415.91687,169.6292,417.84027Q173.12141,419.96814,176.33058,421.42395L176.33058,421.42395L176.32982,421.4256L176.33412,421.42554Q177.40813,421.91266,178.45036,422.32452L179.02238,421.20148Q179.08434,421.1726,179.14854,421.1447L179.15282,421.14465Q178.2712,420.73077,177.3301,420.30908Q175.58678,419.528,173.6393,418.71997Q171.5291,417.6217,169.56923,416.1153Q168.38588,415.49847,161.3637,408.19025Q157.06058,403.73322,155.32025,401.2589Q148.07916,391.10162,147.16287,387.65173Q146.65662,386.20135,146.4195,384.85443Q145.45432,375.94348,144.46497,371.29254Q144.15015,369.81262,143.83289,368.76404 Z"/> </g> <g style="fill:rgb(0,0,0); fill-opacity:1.0; stroke-linejoin: miter"> <path d="M381.40622,631.3026Q384.59418,633.86304,388.11163,635.8047L397.4287,640.9536L397.4287,640.9536Q397.42877,640.95544,397.42883,640.9573L397.4353,640.95715L423.9851,655.6293Q425.68146,656.43286,443.97906,668.3851Q445.21893,669.1622,446.62665,669.8709Q450.46643,671.83075,456.95905,673.70526Q460.25,674.7045,462.88995,675.4559L462.88995,675.4559L463.19403,674.0363L462.88953,675.45795L462.8966,675.4578Q463.96454,675.76166,464.92578,676.02496L465.21973,674.6436L465.22687,674.6435Q464.16663,674.3266,463.2011,674.0361Q454.65674,671.46564,453.52496,670.9677Q450.32605,669.81805,447.53748,668.3973L442.21448,665.413L428.03687,656.38745Q425.0359,654.50806,419.6552,651.50366Q403.9301,642.8313,397.01306,639.041L397.01294,639.041Q391.7859,636.17664,391.58887,636.10034L391.58252,636.10046Q391.5863,636.1041,391.601,636.1138Q385.2312,632.76294,381.4125,631.3025 Z"/> </g> <g style="fill:rgb(0,0,0); fill-opacity:1.0; stroke-linejoin: miter"> <path d="M460.09113,750.26196L458.27014,751.7057L450.6751,757.7269Q447.7771,759.9204,445.41986,761.1647Q442.13318,762.9336,434.62634,765.52527Q431.58228,766.5814,429.31573,766.7174Q428.97772,766.744,428.63635,766.7505Q427.00903,766.78125,425.3056,766.3534L414.22253,763.04114Q412.91656,762.63965,411.61432,762.1277Q409.33862,761.23364,406.97498,759.9592Q401.9525,756.9894,399.50574,755.60376Q397.8645,754.6743,397.38226,754.4574Q397.2021,754.3606,397.01807,754.26465L397.01166,754.2648L397.56543,756.1017L397.56543,756.1017L397.56696,756.1068L397.57343,756.1067Q397.77222,756.22925,397.97455,756.3495Q399.0888,757.03345,400.11017,757.6482L399.49933,755.6039L399.82764,756.70264L400.11163,757.6531L400.11804,757.65295Q406.86316,761.7129,409.5551,762.7551Q413.67523,764.5205,423.47845,767.30786Q426.62384,768.18024,429.1053,768.13336Q429.396,768.12787,429.6776,768.1097Q430.85645,768.04,432.15338,767.6676Q434.67615,766.9916,438.07623,765.838Q444.23315,763.8694,446.53003,762.38635Q448.79724,761.08496,451.2661,759.1636L458.44232,753.54114L460.23132,752.1394L460.23834,752.1393Q460.1668,751.1979,460.09814,750.26184 Z"/> </g> <g style="fill:rgb(0,0,0); fill-opacity:1.0; stroke-linejoin: miter"> <path d="M-47.905396,473.06015Q-48.05928,473.06308,-48.21245,473.07315L-48.663788,473.17313L-48.661774,473.17307Q-47.980026,474.7651,-47.382477,476.1699Q-44.378952,483.23044,-43.501785,485.55972Q-43.27748,485.8588,-40.995132,493.8973Q-40.902603,494.66452,-41.402573,495.12375L-43.871033,496.85837Q-44.48471,497.3342,-44.925293,497.94437Q-45.779083,499.10995,-45.43126,500.26334Q-45.250183,500.97958,-44.31105,502.16092L-38.23085,509.75375Q-37.3564,510.8079,-36.706543,511.3143Q-35.622482,512.2754,-32.816986,512.98413Q-23.738083,515.0615,-21.994125,515.02856Q-21.814072,515.02515,-21.712189,514.99927Q-21.491531,515.0021,-21.251556,514.99756Q-20.388794,514.9812,-19.276686,514.8703Q-9.442046,513.8068,-4.4361873,513.29376L-4.4337153,513.29364Q-4.4337153,513.2935,-4.4337153,513.2935L-4.4337153,513.2935Q-3.3677058,513.18427,-2.5207517,513.10004L-2.5182798,513.0999L-2.1986387,511.50595L-4.290588,511.73807L-18.317488,513.29486Q-21.272263,513.5951,-21.94397,513.6078Q-22.16098,513.61194,-22.139679,513.58606Q-23.06157,513.5553,-24.32994,513.2998L-33.82068,511.29733Q-34.777496,511.0925,-35.657227,510.40573Q-36.14865,510.01248,-36.652924,509.39023L-44.53653,499.51505Q-44.668137,499.17715,-44.248505,498.8046L-41.559113,497.00345Q-40.826324,496.43973,-40.44464,495.84232Q-39.659027,494.59317,-39.970673,492.5123Q-41.735016,485.57254,-42.744675,483.43704L-45.414124,476.96683L-47.00795,473.10367L-47.005936,473.1036Q-47.458694,473.05173,-47.905396,473.06015 Z"/> </g> <g style="fill:rgb(0,0,0); fill-opacity:1.0; stroke-linejoin: miter"> <path d="M416.04626,935.5087Q415.12463,935.5262,414.01294,935.7059Q411.85815,936.10504,406.2846,937.4692Q404.67682,937.9731,403.81396,939.99866L401.44604,949.39404L398.6784,955.83374Q398.6214,955.98,398.4839,956.03235Q398.47327,956.03357,398.46246,956.0338Q398.2248,956.0383,397.88025,955.5355Q395.80853,952.1664,395.27008,951.57983Q394.48267,950.5906,393.61694,949.95435L393.6233,949.9542Q393.67108,949.95325,392.83057,949.41016Q392.19482,948.9994,391.05103,948.2783L391.0448,948.27844Q390.56116,948.8473,390.1197,949.42737L390.12598,949.42725L391.175,950.0703Q391.5758,950.3186,391.91644,950.5453L391.91644,950.5453Q391.91528,950.54675,391.91418,950.5482L391.92053,950.5481Q392.4101,950.87415,392.77472,951.15576Q393.59442,951.77954,394.19562,952.5055Q396.0329,955.3561,396.4892,955.6719Q397.3863,956.57324,398.45343,956.68726Q398.476,956.6875,398.49854,956.687Q399.39154,956.67017,400.10303,955.6349Q400.5357,955.1708,402.2815,951.27734Q402.79138,950.0709,403.0838,949.031L404.73315,942.0946Q405.00513,941.03613,405.3379,940.38257Q405.70258,939.3032,407.73267,938.67285Q408.40247,938.4561,409.36304,938.2276L415.67053,936.77155Q416.0274,936.6944,416.39,936.68756Q416.70618,936.6816,417.0268,936.72906Q417.878,936.85956,418.77277,937.51935L424.77362,942.834Q426.07697,943.87195,427.29315,944.2434Q428.00372,944.4646,429.1756,944.569L429.1761,944.5697L429.18274,944.5696Q430.3415,944.67224,431.9502,944.66113Q431.54767,943.9177,431.164,943.1837L431.1573,943.18384L429.4032,943.2677Q428.8305,943.2742,428.24036,943.1388Q427.9115,943.0635,427.57727,942.944Q426.7757,942.65,425.94043,941.9656L420.115,936.804Q418.81714,935.83905,417.5609,935.6108Q416.88177,935.493,416.04626,935.5087 Z"/> </g> <g style="fill:rgb(0,0,0); fill-opacity:1.0; stroke-linejoin: miter"> <path d="M373.7892,346.2437Q373.03378,346.52692,372.26852,346.78168L372.27475,346.78156Q372.6448,348.20358,373.085,349.7903L373.085,349.7903Q373.08212,349.79123,373.07925,349.7922L373.08548,349.79208Q377.56998,365.9551,389.3451,399.20325L391.17853,402.7768L394.02722,407.43665L417.22815,443.78052Q420.2412,448.43744,422.54688,451.32324Q425.08386,454.62408,429.95746,458.14978L479.9394,493.34116Q483.84317,496.25888,494.81882,500.36685L495.07803,499.24466L494.99478,499.605L494.81827,500.3696L494.8257,500.36942Q495.7643,500.72073,496.7546,501.08072L496.98813,500.08072L496.99557,500.0806Q496.012,499.65213,495.08542,499.24448Q482.15933,493.55722,480.3223,491.8939L431.93573,457.72723Q425.0459,452.76532,423.1858,449.9472Q421.64856,447.99042,419.94318,445.31934L396.4107,408.43695Q392.75134,402.6504,391.1601,399.12054Q389.76123,396.14972,388.0479,391.15936L377.05606,358.0179Q376.4517,356.58383,374.56674,349.26956Q374.20486,347.86502,373.79556,346.2436 Z"/> </g> <g style="fill:rgb(0,0,0); fill-opacity:1.0; stroke-linejoin: miter"> <path d="M588.66235,218.10426Q572.6791,230.73726,522.87335,279.86963Q519.7121,282.74246,515.47955,289.509Q513.90533,292.30936,514.84,293.47964Q516.13947,295.1011,519.2884,296.31937Q548.6027,306.1899,547.35406,306.42575Q562.66644,313.392,577.8788,323.5314Q579.6863,324.66373,580.72876,326.56168L584.3318,337.06848Q584.82007,338.24866,586.07227,338.31982Q587.5393,338.27625,589.2777,336.5686L631.1572,293.28946Q632.6565,290.08597,628.4877,293.86948L589.3911,334.3457Q587.18835,336.66412,586.32776,336.75476Q585.84644,336.76636,585.31604,335.33813L582.55615,327.27243Q581.8873,325.75186,580.80945,324.5076Q580.303,322.99924,566.82227,314.98575Q566.3782,314.0671,545.22076,303.80856L517.2203,294.13144Q515.9007,293.6259,515.68414,293.1841Q515.1257,292.55624,516.2819,290.82767Q521.554,282.8986,523.4676,281.31537Q571.32996,234.58931,584.4308,223.04134Q587.2145,220.38704,588.54407,218.26497"/> </g> <g style="fill:rgb(0,0,0); fill-opacity:1.0; stroke-linejoin: miter"> <path d="M416.05817,254.0021Q419.0595,257.71085,422.16437,260.6774L429.60693,267.53757L429.6068,267.53757Q429.6043,267.53836,429.6018,267.5392L429.60864,267.5391L457.5995,293.33966Q475.1068,307.94458,478.04858,307.88904Q478.10303,307.88806,478.15247,307.88202Q479.03986,308.17346,480.00046,308.36133L495.9352,311.28857Q497.28427,311.44165,498.42935,311.42004Q500.58615,311.37927,502.01895,310.71893Q503.96567,310.05542,509.54166,303.95612Q514.05194,298.91324,517.03314,295.26633L517.04083,295.2662Q517.03815,295.2648,517.0357,295.26328L517.0356,295.26328Q517.42633,294.78537,517.7907,294.3314L517.7984,294.3312L517.2203,294.13144Q516.79047,293.9667,516.4776,293.8088L516.4699,293.80893L515.87335,294.4919L504.96524,306.97968Q503.18265,308.8283,501.2145,309.64368Q499.9153,310.1731,498.47238,310.20032Q497.72067,310.21454,496.92996,310.09247L482.19656,307.28308Q479.70563,306.77893,478.10834,306.2494Q475.65912,305.4757,473.64246,304.09442L460.4593,293.95142L430.11932,266.01767L428.63422,264.65042L427.59033,263.68936L427.58356,263.68948Q427.5835,263.68948,427.5835,263.68942L427.59027,263.6893L422.30927,258.82706Q417.28583,254.32724,416.06482,254.00198 Z"/> </g> <g style="fill:rgb(0,0,0); fill-opacity:1.0; stroke-linejoin: miter"> <path d="M401.73587,300.36786Q404.69388,304.79596,407.6796,308.74323L407.6862,308.7431L414.30643,315.90424L414.30643,315.90424Q414.30563,315.90698,414.30472,315.90967L414.31143,315.90955L459.99835,365.32925Q464.8902,370.25253,476.1388,378.90067Q480.5419,382.0867,484.17355,382.6829Q485.06277,382.8234,486.1569,382.8027Q495.28873,382.63034,518.6947,371.2372Q552.5121,352.09048,556.67737,349.13104Q574.1227,337.513,582.3417,331.28946L582.3501,331.28934L582.34924,331.28702L582.34827,331.28445Q583.00037,330.79068,583.59424,330.33078L583.60266,330.33066L583.2921,329.4232L583.2838,329.42337Q582.6018,329.82065,581.9708,330.20786Q580.9536,330.832,580.0692,331.4299L552.53125,350.07257L543.7634,355.23447L517.74585,370.02493Q513.2687,372.8679,492.3876,380.8055Q489.5516,381.81595,487.00064,381.8641Q485.89584,381.88498,484.84464,381.72537Q481.38498,381.1885,478.36194,378.93204Q466.78857,369.74185,461.37885,364.4164L414.35727,313.81372L405.2286,303.9898Q403.16904,301.78644,401.7424,300.36774 Z"/> </g> <g style="fill:rgb(0,0,0); fill-opacity:1.0; stroke-linejoin: miter"> <path d="M514.85846,166.09045L512.6016,167.10115Q511.87704,167.45656,511.21115,167.90535Q501.30252,175.59871,499.03568,176.89502Q493.29172,180.64923,491.70248,180.9531Q487.9822,182.11197,486.19266,181.78476Q485.21268,181.63623,483.84067,181.01984L478.7649,178.35565Q477.51154,177.73694,476.3589,177.35477L474.55096,176.93103L474.8913,177.11984Q475.12292,177.73969,475.85956,178.34952Q476.55017,178.93057,478.00653,179.6961L484.23105,182.94684Q484.64078,183.15427,485.17465,183.2973Q487.19156,183.91959,491.62527,182.52243Q493.58664,181.91537,495.13583,181.04547Q501.85605,176.90765,502.3358,176.4701L511.1169,169.8986L512.50446,168.81227Q514.4306,167.23158,514.8742,166.10342"/> </g> <g style="fill:rgb(0,0,0); fill-opacity:1.0; stroke-linejoin: miter"> <path d="M588.8567,166.56346Q587.77905,167.13289,586.7102,167.70354Q575.2794,173.80647,564.86523,180.04686Q563.2572,180.94215,561.6452,181.58675Q560.35394,182.08989,559.33514,182.35304L531.1857,189.73717Q529.7431,190.11101,528.3665,190.2967Q526.81805,190.52138,524.7111,190.5685L507.81442,190.6483Q504.56564,190.59494,503.09695,189.93976Q500.75455,188.95291,499.4951,186.948Q497.9044,182.50201,496.79404,180.02652Q496.79404,180.02649,496.79404,180.02649L496.7941,180.02649Q496.46024,179.2822,496.16977,178.71606L496.16232,178.71622Q495.71378,178.98935,495.30496,179.22958L495.31247,179.22943Q495.41653,179.96936,495.6232,180.74515L495.62326,180.74515Q495.62003,180.74716,495.6168,180.74918L495.6243,180.74902Q495.8049,181.42621,496.0637,182.13068Q497.77658,187.46625,499.2194,189.11514Q501.07877,191.69101,504.84818,192.03891Q505.67825,192.12888,506.9741,192.13126L522.27313,192.05072Q523.0286,192.04944,523.7126,192.03653Q525.3802,192.00504,526.6231,191.9045Q528.56854,191.82329,533.04376,190.7454L557.98724,184.22041Q562.6871,183.03441,565.2833,181.44054L578.66846,173.74834L588.6975,168.3423L590.83496,167.19011L588.86523,166.56331 Z"/> </g> <g style="fill:rgb(0,0,0); fill-opacity:1.0; stroke-linejoin: miter"> <path d="M477.29266,53.893955Q475.9063,53.92014,474.01703,54.958073Q463.49432,62.27646,462.8191,62.289215Q462.7992,62.28958,462.78784,62.28363L441.61865,72.28176Q441.55145,72.31722,441.48633,72.352135Q438.91907,73.72762,439.4652,74.22625Q440.29126,74.056694,441.18036,73.78817L441.18732,73.78805Q441.18744,73.78701,441.1875,73.786L441.1875,73.786Q442.66858,73.33816,444.32446,72.615715L463.46533,63.5477Q465.15924,62.70392,466.97845,61.537994Q475.58655,55.496647,476.38135,55.262943Q476.8623,54.984135,477.50092,54.97208Q478.51233,54.953007,479.9192,55.603Q483.60623,57.56577,487.99765,60.16391Q488.72134,60.626617,488.9872,61.46402Q489.20346,62.23944,489.08542,63.192963Q487.36166,71.70596,487.54196,74.411125Q487.9031,83.595726,489.0942,84.74206Q489.61966,85.94186,492.09952,87.01266Q491.70474,87.109184,503.42307,91.1685Q504.6804,91.63487,505.13126,92.20653Q505.8605,92.95109,506.38083,94.60233L509.44254,105.941345Q510.40366,108.22879,512.03986,108.22577Q518.3178,107.17493,520.0744,104.072205Q520.56256,103.11893,520.5286,101.29245Q519.4611,93.02729,519.7105,91.69886Q519.8361,90.07807,521.3283,88.08515Q526.2222,81.76146,529.4932,79.260666Q533.9428,75.55257,534.18536,75.51271L534.1932,75.51256Q534.20746,75.515396,534.1884,75.54729Q534.93524,75.09993,535.622,75.08696Q536.0457,75.078964,536.4466,75.23634Q542.4665,80.22963,543.33295,82.80824Q543.7349,83.86286,543.9986,85.44956L545.9611,98.44882Q547.35284,105.26077,548.41437,106.96521Q552.47723,112.44506,555.2409,115.73861L555.2409,115.73861Q555.241,115.743675,555.2413,115.74871L555.24945,115.74856Q556.38947,117.10674,557.30817,118.09237L557.18256,115.882774L557.19794,115.76086L555.363,113.52572L551.2034,108.45932Q549.88434,106.769714,549.29645,105.48569Q549.2874,105.49277,549.2774,105.49295Q548.95074,105.499115,547.44806,98.25946Q547.0384,96.69635,545.53046,86.054634L544.58466,82.23161Q543.9406,79.666824,538.8726,75.32701Q537.09454,73.82503,535.5728,73.853745Q534.8868,73.866714,534.25287,74.19072Q527.35297,78.32347,523.97504,82.5309Q519.0606,88.16621,518.41254,90.93415Q518.1413,91.991005,518.1884,93.59992Q519.5396,103.85669,518.88654,103.86902Q518.8829,103.86908,518.8792,103.868805Q518.31195,104.90823,516.6711,105.5372Q513.215,106.916016,512.0821,106.93741Q511.77512,106.94321,511.63876,106.849335Q510.96213,106.651825,510.67624,105.71472Q508.13156,94.978676,507.8571,94.900734Q507.09402,92.81791,505.785,91.36305Q504.7692,90.23787,502.62234,89.310074L491.96585,85.560234Q490.5779,84.905266,489.97342,83.661064Q489.6937,83.08144,489.59604,82.21615L488.88205,73.69454L490.21494,63.573944Q490.15573,61.57675,489.26614,60.149597Q488.42728,58.42722,483.37888,55.824284Q480.0474,53.989933,477.6781,53.89667L477.45886,53.894505Q477.37665,53.8924,477.29266,53.893955 Z"/> </g> <g style="fill:rgb(0,0,0); fill-opacity:1.0; stroke-linejoin: miter"> <path d="M-144.38718,325.73666Q-114.89792,325.19058,-92.75933,345.31207Q-71.507095,365.94827,-70.12959,395.4896Q-69.60004,425.0549,-89.48627,447.01248Q-110.24687,468.48935,-139.73555,469.8665Q-169.22827,470.52444,-191.4491,450.47018Q-212.77612,430.0397,-214.26207,400.07016Q-214.77075,370.5044,-194.86548,348.55856Q-174.08511,327.0958,-144.59457,325.7435 M-144.42258,324.57266Q-174.72755,326.00107,-195.60602,347.64554Q-215.9818,370.17926,-215.43178,399.92172Q-214.01498,430.17545,-192.63968,450.94882Q-170.53859,471.36728,-140.23299,471.0472Q-109.92093,469.73044,-88.95465,448.1478Q-68.49364,425.66684,-68.95163,395.92276Q-70.16501,365.7715,-91.79139,344.6242Q-113.91141,324.22073,-144.21764,324.56656"/> </g> <g style="fill:rgb(255,209,164); fill-opacity:1.0; stroke-linejoin: miter"> <path d="M397.4353,640.95715L423.9851,655.6293Q425.68146,656.43286,443.97906,668.3851Q445.21893,669.1622,446.62665,669.8709Q450.46643,671.83075,456.95905,673.70526Q460.25,674.7045,462.88995,675.4559L463.19403,674.0363L463.02557,674.8226L456.5188,705.1992Q455.90796,716.8667,457.7832,746.5149L458.27014,751.7057L458.27014,751.7057L458.27014,751.7057L450.6751,757.7269Q447.7771,759.9204,445.41986,761.1647Q442.13318,762.9336,434.62634,765.52527Q431.58228,766.5814,429.31573,766.7174Q428.97772,766.744,428.63635,766.7505Q427.00903,766.78125,425.3056,766.3534L414.22253,763.04114Q412.91656,762.63965,411.61432,762.1277Q409.33862,761.23364,406.97498,759.9592Q401.9525,756.9894,399.50574,755.60376L399.49933,755.6039L393.82495,736.61206L392.78064,716.2383L397.4297,640.9863Q397.42926,640.9718,397.42883,640.9573 Z"/> </g> <g style="fill:rgb(255,209,164); fill-opacity:1.0; stroke-linejoin: miter"> <path d="M194.74751,348.49176Q195.30486,348.48126,195.91396,348.51428L223.07347,349.53708Q222.6934,349.21207,249.50427,348.68393L249.50928,348.6838Q251.97672,351.76123,252.53452,352.69153Q253.70566,354.40857,254.7587,356.59888L256.49503,360.57312L264.22617,379.84216Q265.5021,383.18,265.79697,385.66888L265.9133,387.0298L267.60025,430.37634Q267.76004,433.72455,267.68698,438.19702L267.62222,441.41986L267.62222,441.41986Q266.2927,440.83362,264.47763,440.12915Q250.37943,434.72333,242.01624,431.8012L242.01129,431.80127L241.94604,431.45807Q221.74474,424.02203,198.69011,419.88324L179.16585,419.37592Q178.00035,419.88983,177.32768,420.30798L177.32768,420.30798Q175.58543,419.5274,173.6393,418.71997Q171.5291,417.6217,169.56923,416.1153Q168.38588,415.49847,161.3637,408.19025Q157.06058,403.73322,155.32025,401.2589Q148.07916,391.10162,147.16287,387.65173Q146.65662,386.20135,146.4195,384.85443Q145.45432,375.94348,144.46497,371.29254L144.461,371.2926L162.13817,364.162L191.81114,348.9673Q193.03477,348.5241,194.74751,348.49176 Z"/> </g> <g style="fill:rgb(255,209,164); fill-opacity:1.0; stroke-linejoin: miter"> <path d="M477.50092,54.97208Q478.51233,54.953007,479.9192,55.603Q483.60623,57.56577,487.99765,60.16391Q488.72134,60.626617,488.9872,61.46402Q489.20346,62.23944,489.08542,63.192963Q487.36166,71.70596,487.54196,74.411125Q487.9031,83.595726,489.0942,84.74206Q489.61966,85.94186,492.09952,87.01266Q491.70474,87.109184,503.42307,91.1685Q504.6804,91.63487,505.13126,92.20653Q505.8605,92.95109,506.38083,94.60233L509.44254,105.941345Q510.40366,108.22879,512.03986,108.22577Q518.3178,107.17493,520.0744,104.072205Q520.56256,103.11893,520.5286,101.29245Q519.4611,93.02729,519.7105,91.69886Q519.8361,90.07807,521.3283,88.08515Q526.2222,81.76146,529.4932,79.260666Q533.9428,75.55257,534.18536,75.51271L534.1932,75.51256Q534.20746,75.515396,534.1884,75.54729Q534.93524,75.09993,535.622,75.08696Q536.0457,75.078964,536.4466,75.23634Q542.4665,80.22963,543.33295,82.80824Q543.7349,83.86286,543.9986,85.44956L545.9611,98.44882Q547.35284,105.26077,548.41437,106.96521Q552.47723,112.44506,555.2409,115.73861L555.2409,115.73861Q555.6484,132.5605,555.99554,132.55394Q556.03644,132.55318,556.07635,132.32011Q566.31445,154.19809,576.7644,164.48947L586.7186,167.70335L586.7102,167.70354Q575.2794,173.80647,564.86523,180.04686Q563.2572,180.94215,561.6452,181.58675Q560.35394,182.08989,559.33514,182.35304L531.1857,189.73717Q529.7431,190.11101,528.3665,190.2967Q526.81805,190.52138,524.7111,190.5685L507.81442,190.6483Q504.56564,190.59494,503.09695,189.93976Q500.75455,188.95291,499.4951,186.948Q497.9044,182.50201,496.79404,180.02652Q496.79404,180.02652,496.79404,180.02652L496.78647,180.02667Q501.9188,176.85046,502.3358,176.4701L511.1169,169.8986L512.50446,168.81227Q514.4306,167.23158,514.8742,166.10342L514.85846,166.09045L512.6016,167.10115Q511.87704,167.45656,511.21115,167.90535Q501.30252,175.59871,499.03568,176.89502Q493.29172,180.64923,491.70248,180.9531Q488.90872,181.8234,487.2037,181.85559Q486.63834,181.86627,486.19266,181.78476Q485.21268,181.63623,483.84067,181.01984L478.7649,178.35565Q477.7447,177.85208,476.79132,177.50519L476.784,177.50531L473.53473,175.58818Q473.66437,169.0312,465.86725,160.28511L466.3728,154.09618L461.35114,149.925L458.13782,136.94391Q457.68634,135.34775,451.20746,134.60245Q452.0716,114.940346,451.8114,114.8162L451.80432,114.81632Q451.77118,114.8325,451.72174,115.13279L444.32507,103.38933Q440.74353,79.125755,441.1875,73.786L441.1875,73.786Q442.66858,73.33816,444.32446,72.615715L463.46533,63.5477Q465.15924,62.70392,466.97845,61.537994Q475.58655,55.496647,476.38135,55.262943Q476.8623,54.984135,477.50092,54.97208 Z"/> </g> <g style="fill:rgb(161,79,0); fill-opacity:1.0; stroke-linejoin: miter"> <path d="M495.2888,12.967493L531.736,22.392015L552.9803,46.762547L559.7442,77.98985L555.363,113.52572L555.363,113.52572L555.363,113.52572L551.2034,108.45932Q549.88434,106.769714,549.29645,105.48569Q549.2874,105.49277,549.2774,105.49295Q548.95074,105.499115,547.44806,98.25946Q547.0384,96.69635,545.53046,86.054634L544.58466,82.23161Q543.9406,79.666824,538.8726,75.32701Q537.09454,73.82503,535.5728,73.853745Q534.8868,73.866714,534.25287,74.19072Q527.35297,78.32347,523.97504,82.5309Q519.0606,88.16621,518.41254,90.93415Q518.1413,91.991005,518.1884,93.59992Q519.5396,103.85669,518.88654,103.86902Q518.8829,103.86908,518.8792,103.868805Q518.31195,104.90823,516.6711,105.5372Q513.215,106.916016,512.0821,106.93741Q511.77512,106.94321,511.63876,106.849335Q510.96213,106.651825,510.67624,105.71472Q508.13156,94.978676,507.8571,94.900734Q507.09402,92.81791,505.785,91.36305Q504.7692,90.23787,502.62234,89.310074L491.96585,85.560234Q490.5779,84.905266,489.97342,83.661064Q489.6937,83.08144,489.59604,82.21615L488.88205,73.69454L490.21494,63.573944Q490.15573,61.57675,489.26614,60.149597Q488.42728,58.42722,483.37888,55.824284Q480.0474,53.989933,477.6781,53.89667L477.45886,53.894505Q477.37665,53.8924,477.29266,53.893955Q475.9063,53.92014,474.01703,54.958073Q463.49432,62.27646,462.8191,62.289215Q462.7992,62.28958,462.78784,62.28363L441.61865,72.28176Q441.55493,72.31539,441.49304,72.348564L441.49304,72.348564Q441.3883,71.09451,436.52777,69.16574L436.29382,60.444702Q455.09412,25.23122,495.2888,12.967493 Z"/> </g> <g style="fill:rgb(81,161,0); fill-opacity:1.0; stroke-linejoin: miter"> <path d="M588.6975,168.3423L589.4214,168.57603Q601.98914,181.74934,624.7123,199.36111Q636.22046,212.53986,640.55383,229.68123Q641.1581,231.04597,641.12476,232.86366L641.64136,254.43427Q639.0043,269.86737,629.25415,293.19913L629.24524,293.1993Q628.8933,293.50125,628.4877,293.86948L589.3911,334.3457Q587.18835,336.66412,586.32776,336.75476Q586.3269,336.75476,586.32605,336.75476Q585.84546,336.76385,585.31604,335.33813L583.60266,330.33066L583.60266,330.33066L583.2921,329.4232L583.2921,329.4232L582.55615,327.27243Q581.8873,325.75186,580.80945,324.5076Q580.303,322.99924,566.82227,314.98575Q566.3782,314.0671,545.22076,303.80856L517.7984,294.3312L517.7984,294.3312L517.2203,294.13144Q516.79047,293.9667,516.4776,293.8088L516.4776,293.8088Q515.83014,293.48196,515.68414,293.1841Q515.1257,292.55624,516.2819,290.82767Q521.554,282.8986,523.4676,281.31537Q571.32996,234.58931,584.4308,223.04134Q587.2145,220.38704,588.54407,218.26497L588.6509,218.1198L588.64246,218.11995Q572.6482,230.76784,522.87335,279.86963Q519.7121,282.74246,515.47955,289.509Q513.90533,292.30936,514.84,293.47964Q515.26263,294.00705,515.88104,294.49173L515.87335,294.4919L504.96524,306.97968Q503.18265,308.8283,501.2145,309.64368Q499.9153,310.1731,498.47238,310.20032Q497.72067,310.21454,496.92996,310.09247L482.19656,307.28308Q479.70563,306.77893,478.10834,306.2494Q475.65912,305.4757,473.64246,304.09442L460.4593,293.95142L430.11932,266.01767L430.11932,266.01767L434.96588,235.50923Q440.91754,208.27205,443.9616,202.69867L481.23428,181.38177L481.23428,181.38177L484.23105,182.94684Q484.64078,183.15427,485.17465,183.2973Q485.8494,183.5055,486.79477,183.48764Q488.6749,183.45215,491.62527,182.52243Q493.58664,181.91537,495.13583,181.04547Q495.3804,180.89484,495.61673,180.74918L495.6243,180.74902Q495.8049,181.42621,496.0637,182.13068Q497.77658,187.46625,499.2194,189.11514Q501.07877,191.69101,504.84818,192.03891Q505.67825,192.12888,506.9741,192.13126L522.27313,192.05072Q523.0286,192.04944,523.7126,192.03653Q525.3802,192.00504,526.6231,191.9045Q528.56854,191.82329,533.04376,190.7454L557.98724,184.22041Q562.6871,183.03441,565.2833,181.44054L578.66846,173.74834L588.6975,168.3423 Z"/> </g> <g style="fill:rgb(81,161,0); fill-opacity:1.0; stroke-linejoin: miter"> <path d="M627.69385,296.87753L627.69385,296.87753Q616.2644,323.44028,596.0825,359.72217L528.4657,445.90222L513.22314,468.87036L507.51755,484.48L495.77347,496.23294L495.07877,499.2415L495.07877,499.2415Q482.1589,493.55673,480.3223,491.8939L431.93573,457.72723Q425.0459,452.76532,423.1858,449.9472Q421.64856,447.99042,419.94318,445.31934L396.4107,408.43695Q392.75134,402.6504,391.1601,399.12054Q389.76123,396.14972,388.0479,391.15936L377.05606,358.0179Q376.4517,356.58383,374.56674,349.26956L374.56052,349.26968Q380.82297,346.93695,386.8835,342.5841Q393.17197,338.4087,409.5361,322.6438Q412.84238,319.30365,412.56522,318.07318L412.5585,318.0733L413.63205,317.45422Q414.08017,316.6057,414.30472,315.90967L414.31143,315.90955L459.99835,365.32925Q464.8902,370.25253,476.1388,378.90067Q480.5419,382.0867,484.17355,382.6829Q485.06277,382.8234,486.1569,382.8027Q495.28873,382.63034,518.6947,371.2372Q552.5121,352.09048,556.67737,349.13104Q574.1227,337.513,582.3417,331.28946L582.3501,331.28934L584.3318,337.06848Q584.82007,338.24866,586.07227,338.31982Q587.5393,338.27625,589.2777,336.5686L627.68506,296.87772 Z"/> </g> <g style="fill:rgb(79,108,49); fill-opacity:1.0; stroke-linejoin: miter"> <path d="M253.4325,348.6082Q270.5219,348.2855,297.2295,347.89102Q339.0375,352.82645,355.97073,352.50674Q361.69278,352.3987,364.57437,351.69058Q368.87204,351.19376,373.07925,349.7922L373.08548,349.79208Q377.56998,365.9551,389.3451,399.20325L391.17853,402.7768L394.02722,407.43665L417.22815,443.78052Q420.2412,448.43744,422.54688,451.32324Q425.08386,454.62408,429.95746,458.14978L479.9394,493.34116Q483.84317,496.25888,494.81882,500.36685L495.07803,499.24466L494.99478,499.605L494.95413,499.7809L489.35062,524.0491Q483.87674,574.2036,478.07196,604.5787L463.19446,674.03424L463.19446,674.03424Q454.6563,671.4655,453.52496,670.9677Q450.32605,669.81805,447.53748,668.3973L442.21448,665.413L428.03687,656.38745Q425.0359,654.50806,419.6552,651.50366Q403.9301,642.8313,397.01306,639.041L397.00665,639.04114Q396.41693,637.82324,395.01,637.33594L356.53305,617.6156L360.56943,543.1341L368.933,501.119Q368.527,498.1039,367.61905,497.88388L348.5859,477.61862L348.1711,477.20224Q346.85532,476.09567,345.29123,476.12515Q344.7236,476.1359,344.12332,476.2963L265.71732,492.43808L265.71732,492.43808Q266.06906,491.14517,267.28616,484.89645Q268.33212,479.90396,268.46548,473.3173L269.04977,443.5763L269.05496,443.57617Q269.05246,443.57532,269.04996,443.57446L269.04984,443.57446L269.07877,442.10107L269.08395,442.101Q269.08133,442.09973,269.07883,442.09845L269.07883,442.09845L269.10135,440.9532Q269.1805,436.3532,269.1343,433.45563L268.96976,427.7033L267.4733,389.48755Q267.37692,386.87512,267.16727,385.25018Q266.83713,382.3377,265.55484,379.32117L256.4122,356.43536Q256.04562,355.47107,255.56638,354.54242Q254.86887,352.90228,251.44604,348.6461Q251.44604,348.6461,251.44604,348.6461L251.44104,348.6462Q252.41986,348.6273,253.4325,348.6082 Z"/> </g> <g style="fill:rgb(81,161,0); fill-opacity:1.0; stroke-linejoin: miter"> <path d="M242.25089,433.0351Q243.0929,433.39557,244.01877,433.77936L244.01233,433.77948Q243.92468,433.8319,265.4514,442.23114Q266.6547,442.69745,267.58945,443.04547L267.58945,443.04755L266.88803,477.90366Q266.7855,479.6108,266.37112,481.99832Q264.4628,491.241,264.49387,491.6456Q264.4484,491.94046,264.40842,492.23044L264.40842,492.23044L252.23453,485.55777L242.24594,433.03522 Z"/> </g> <g style="fill:rgb(127,153,101); fill-opacity:1.0; stroke-linejoin: miter"> <path d="M458.44232,753.54114L462.0415,791.90436L454.47528,822.0191Q448.05646,835.992,438.0528,869.476Q436.8131,883.7044,428.5896,910.4257L425.61676,935.7021Q425.30817,936.6242,426.28754,936.88043L426.28088,936.88055Q426.00818,938.2735,428.05914,942.87415L428.23236,943.1371L428.23236,943.1371Q427.90747,943.06213,427.57727,942.944Q426.7757,942.65,425.94043,941.9656L420.115,936.804Q418.81714,935.83905,417.5609,935.6108Q416.88177,935.493,416.04626,935.5087Q415.12463,935.5262,414.01294,935.7059Q411.85815,936.10504,406.2846,937.4692Q404.67682,937.9731,403.81396,939.99866L401.44604,949.39404L398.6784,955.83374Q398.6214,955.98,398.4839,956.03235Q398.47327,956.03357,398.46246,956.0338Q398.2248,956.0383,397.88025,955.5355Q395.80853,952.1664,395.27008,951.57983Q394.48267,950.5906,393.61694,949.95435L393.6233,949.9542Q393.67108,949.95325,392.83057,949.41016L392.82428,949.4103Q393.88483,948.1377,395.16046,946.8347L400.6277,869.16486L400.4906,811.5516Q403.88092,792.0184,402.2998,764.9769L399.73822,756.4033L399.73822,756.4033L399.82764,756.70264L400.11163,757.6531L400.11804,757.65295Q406.86316,761.7129,409.5551,762.7551Q413.67523,764.5205,423.47845,767.30786Q426.62384,768.18024,429.1053,768.13336Q429.396,768.12787,429.6776,768.1097Q430.85645,768.04,432.15338,767.6676Q434.67615,766.9916,438.07623,765.838Q444.23315,763.8694,446.53003,762.38635Q448.79724,761.08496,451.2661,759.1636L458.44232,753.54114 Z"/> </g> <g style="fill:rgb(127,153,101); fill-opacity:1.0; stroke-linejoin: miter"> <path d="M143.67316,371.61194Q143.65039,373.9204,143.95477,376.412Q144.8558,385.6046,145.83414,388.15802Q146.5256,390.4312,147.91605,392.61084Q151.28339,398.18988,154.67636,402.83118Q157.05429,406.07245,161.98323,410.95367Q166.80763,415.91687,169.6292,417.84027Q173.12141,419.96814,176.33058,421.42395L176.32982,421.4256L176.32988,421.4256L171.62547,431.71643L144.4209,448.89267L108.89989,461.60403L93.5346,461.65628L-1.9152524,506.5737Q-4.063171,508.30032,-4.0876765,509.26346Q-4.181091,510.5283,-4.2881465,511.738L-4.290588,511.73807L-18.317488,513.29486Q-21.272263,513.5951,-21.94397,513.6078Q-22.16098,513.61194,-22.139679,513.58606Q-23.06157,513.5553,-24.32994,513.2998L-33.82068,511.29733Q-34.777496,511.0925,-35.657227,510.40573Q-36.14865,510.01248,-36.652924,509.39023L-44.53653,499.51505Q-44.668137,499.17715,-44.248505,498.8046L-41.559113,497.00345Q-40.826324,496.43973,-40.44464,495.84232Q-39.659027,494.59317,-39.970673,492.5123Q-41.735016,485.57254,-42.744675,483.43704L-45.414124,476.96683L-45.414124,476.96683L-38.08586,482.35062Q-36.564224,482.96133,-35.007416,482.93198Q-33.619797,482.90573,-32.20424,482.371L-5.9075007,467.55283L56.94158,421.53824L123.53404,379.73425L143.66922,371.612 Z"/> </g> <g style="fill:rgb(33,39,27); fill-opacity:1.0; stroke-linejoin: miter"> <path d="M416.39,936.68756Q416.70618,936.6816,417.0268,936.72906Q417.878,936.85956,418.77277,937.51935L424.77362,942.834Q426.07697,943.87195,427.29315,944.2434Q428.00372,944.4646,429.1756,944.569L429.1756,944.569L429.1761,944.5697L429.1761,944.5697L429.1761,944.5697L463.05365,996.0001L466.86035,1009.75793Q463.16553,1020.23315,462.1651,1020.2521Q461.9829,1020.2555,461.89008,1019.91223Q460.05463,1023.5951,438.8161,1026.5309L414.59406,1016.71606Q405.9228,996.03735,390.90918,974.42944L387.61884,960.4674Q387.91736,955.7687,391.91418,950.5482L391.92053,950.5481Q392.4101,950.87415,392.77472,951.15576Q393.59442,951.77954,394.19562,952.5055Q396.0329,955.3561,396.4892,955.6719Q397.3863,956.57324,398.45343,956.68726Q398.476,956.6875,398.49854,956.687Q399.39154,956.67017,400.10303,955.6349Q400.5357,955.1708,402.2815,951.27734Q402.79138,950.0709,403.0838,949.031L404.73315,942.0946Q405.00513,941.03613,405.3379,940.38257Q405.70258,939.3032,407.73267,938.67285Q408.40247,938.4561,409.36304,938.2276L415.67053,936.77155Q416.0274,936.6944,416.39,936.68756 Z"/> </g> <g style="fill:rgb(33,39,27); fill-opacity:1.0; stroke-linejoin: miter"> <path d="M-47.854645,476.13565Q-47.632263,476.13144,-47.380447,476.16983L-47.382477,476.1699Q-44.378952,483.23044,-43.501785,485.55972Q-43.27748,485.8588,-40.995132,493.8973Q-40.902603,494.66452,-41.402573,495.12375L-43.871033,496.85837Q-44.48471,497.3342,-44.925293,497.94437Q-45.779083,499.10995,-45.43126,500.26334Q-45.250183,500.97958,-44.31105,502.16092L-38.23085,509.75375Q-37.3564,510.8079,-36.706543,511.3143Q-35.622482,512.2754,-32.816986,512.98413Q-23.738083,515.0615,-21.994125,515.02856Q-21.814072,515.02515,-21.712189,514.99927Q-21.491531,515.0021,-21.251556,514.99756Q-20.388794,514.9812,-19.276686,514.8703Q-9.442046,513.8068,-4.4361873,513.29376L-4.4337153,513.29364Q-6.0702505,529.8521,-10.4318075,535.4482Q-9.313262,536.7076,-17.369627,540.49664L-64.78815,537.2942L-64.78998,537.2942Q-63.814087,536.5265,-68.104645,535.209L-87.23752,536.74L-111.710526,541.5554Q-134.19798,538.52313,-133.34962,537.48376L-155.11562,526.75934Q-157.10365,525.81744,-157.96065,524.5302L-165.90918,506.52127Q-166.07274,506.6044,-166.15334,506.60593Q-167.04347,506.62277,-157.81206,496.68564Q-146.90437,492.17142,-144.345,491.96817Q-115.29031,489.1981,-87.389496,484.90262L-48.39482,476.22238Q-48.150833,476.1412,-47.854645,476.13565 Z"/> </g> <g style="fill:rgb(145,150,139); fill-opacity:1.0; stroke-linejoin: miter"> <path d="M-144.38718,325.73666Q-114.89792,325.19058,-92.75933,345.31207Q-71.507095,365.94827,-70.12959,395.4896Q-69.60004,425.0549,-89.48627,447.01248Q-110.24687,468.48935,-139.73555,469.8665Q-139.88051,469.86972,-140.02525,469.87247Q-169.33748,470.42593,-191.4491,450.47018Q-212.77612,430.0397,-214.26207,400.07016Q-214.77075,370.5044,-194.86548,348.55856Q-174.08511,327.0958,-144.59457,325.7435L-144.38718,325.73666 Z"/> </g> </g> </g> </svg>